<svg width="38" height="38" viewBox="0 0 38 38" fill="none" xmlns="http://www.w3.org/2000/svg">
<path d="M33.4311 20.0325C33.4311 19.2064 33.4311 18.3803 33.4311 17.7608L37.5841 14.6629L35.0923 8.88033L29.901 9.70642C29.4857 9.08686 28.8628 8.46729 28.2398 8.05425L29.0704 2.68468L23.2562 0.206421L20.1415 4.33686C19.3109 4.33686 18.4803 4.33686 17.8573 4.33686L14.5349 0.206421L8.72069 2.68468L9.55129 7.84773C8.92834 8.46729 8.30539 8.88033 7.89009 9.4999L2.69883 8.88033L0.207031 14.6629L4.36004 17.7608C4.36004 18.5869 4.36004 19.4129 4.36004 20.0325L0.207031 23.1303L2.69883 28.9129L7.89009 28.0869C8.30539 28.7064 8.92834 29.326 9.55129 29.739L8.72069 35.1086L14.5349 37.3803L17.6497 33.2499C18.4803 33.2499 19.3109 33.2499 19.9338 33.2499L23.0486 37.3803L29.0704 35.1086L28.2398 29.9456C28.8628 29.5325 29.4857 28.9129 29.901 28.2934L35.0923 29.1195L37.5841 23.3369L33.4311 20.0325ZM33.6387 26.2282L28.8628 25.6086L28.4475 26.2282C27.8245 27.0542 26.9939 27.8803 26.1633 28.4999L25.748 28.9129L26.371 33.6629L24.0868 34.6955L21.1797 30.7716H20.5568C19.5185 30.9782 18.4803 30.9782 17.442 30.7716H16.8191L13.9119 34.6955L11.6278 33.6629L12.0431 28.9129L11.4201 28.4999C10.5895 27.8803 9.75894 27.0542 9.13599 26.2282L8.72069 25.6086L4.15239 26.2282L3.11414 23.9564L7.05949 21.0651V20.4456C6.85184 19.4129 6.85184 18.3803 7.05949 17.3477V16.7282L3.11414 13.8369L4.15239 11.3586L8.92834 11.9782L9.34364 11.3586C9.96659 10.5325 10.7972 9.70642 11.6278 9.08686L12.2507 8.67381L11.4201 4.13033L13.7043 3.09773L16.6114 7.02164H17.2344C18.2726 6.81512 19.3109 6.81512 20.3491 7.02164H20.9721L23.8792 3.09773L26.371 4.13033L25.748 8.88033L26.371 9.29338C27.2016 9.91294 28.0322 10.739 28.6551 11.5651L29.0704 12.1847L33.8464 11.5651L34.8846 13.8369L30.7316 16.5216V17.1412C30.9393 18.1738 30.9393 19.2064 30.7316 20.239V20.8586L34.677 23.7499L33.6387 26.2282Z" fill="black"/>
<path d="M15.7805 18.5868L14.5346 21.4781L14.1193 20.652C13.2887 17.9672 14.5346 15.0759 17.234 14.2498C17.857 14.0433 18.6876 13.8368 19.3105 14.0433L20.3488 11.7716C16.4034 10.9455 12.4581 13.4237 11.6275 17.5542C11.4198 18.7933 11.4198 20.239 12.0428 21.4781L12.4581 22.3042L9.55095 21.065L8.5127 23.1303L14.9499 26.0216L17.857 19.6194L15.7805 18.5868Z" fill="black"/>
<path d="M19.9336 18.1738L22.0101 19.2064L23.256 16.3151L23.6713 17.1412C24.7095 19.826 23.256 22.5107 20.7642 23.5433C20.1412 23.7499 19.3106 23.9564 18.6877 23.7499L17.6494 26.0216C21.5948 26.8477 25.5401 24.1629 26.1631 20.239C26.3707 18.9999 26.3707 17.5542 25.7478 16.3151L25.3325 15.489L28.2396 16.7281L29.2778 14.6629L22.8407 11.7716L19.9336 18.1738Z" fill="black"/>
</svg>
