<svg width="37" height="21" viewBox="0 0 37 21" fill="none" xmlns="http://www.w3.org/2000/svg">
<path d="M36.5889 10.1056C33.3 4.14446 26.3111 0.444458 18.5 0.444458C10.6889 0.444458 3.7 4.14446 0.411111 10.1056L0 10.7222L0.411111 11.3389C3.7 17.3 10.6889 21 18.5 21C26.3111 21 33.3 17.3 36.5889 11.3389L37 10.7222L36.5889 10.1056ZM2.67222 10.7222C4.52222 7.6389 7.81111 5.37779 11.5111 3.9389C9.66111 5.7889 8.63333 8.05001 8.63333 10.7222C8.63333 13.3945 9.66111 15.6556 11.3056 17.5056C7.60556 16.0667 4.52222 13.8056 2.67222 10.7222ZM18.5 18.3278C14.3889 18.3278 10.8944 14.8333 10.8944 10.7222C10.8944 6.61112 14.3889 3.11668 18.5 3.11668C22.6111 3.11668 26.1056 6.40557 26.1056 10.7222C26.1056 15.0389 22.6111 18.3278 18.5 18.3278ZM25.6944 17.5056C27.3389 15.6556 28.3667 13.3945 28.3667 10.7222C28.3667 8.05001 27.3389 5.7889 25.6944 3.9389C29.3944 5.17224 32.4778 7.6389 34.5333 10.7222C32.4778 13.8056 29.3944 16.0667 25.6944 17.5056Z" fill="black"/>
<path d="M18.5013 7.63892C16.8569 7.63892 15.418 9.0778 15.418 10.7222C15.418 12.3667 16.8569 13.8056 18.5013 13.8056C20.1457 13.8056 21.5846 12.3667 21.5846 10.7222C21.5846 9.0778 20.1457 7.63892 18.5013 7.63892Z" fill="black"/>
</svg>
