<svg width="21" height="22" viewBox="0 0 21 22" fill="none" xmlns="http://www.w3.org/2000/svg">
<g clip-path="url(#clip0)">
<path d="M16.4731 3.17778C12.3234 3.17778 8.2994 0.611111 4.1497 0.611111C3.26946 0.611111 2.26347 0.733333 1.38323 1.1V0H0V22H1.50898V15.7667C2.38922 15.5222 3.26946 15.2778 4.27545 15.2778C8.42515 15.2778 12.4491 17.8444 16.5988 17.8444C18.2335 17.8444 19.7425 17.3556 21.1257 16.6222V1.83333C19.6168 2.68889 18.1078 3.17778 16.4731 3.17778ZM19.491 15.7667C18.6108 16.2556 17.6048 16.3778 16.5988 16.3778C14.7126 16.2556 12.7006 15.8889 10.9401 15.1556C8.80239 14.4222 6.53892 13.9333 4.27545 13.8111C3.39521 13.8111 2.38922 13.9333 1.50898 14.1778V2.68889C2.38922 2.32222 3.26946 2.07778 4.27545 2.07778C6.16168 2.2 8.17365 2.56667 9.93413 3.3C12.0719 4.03333 14.3353 4.52222 16.5988 4.64444C17.6048 4.64444 18.6108 4.52222 19.491 4.27778V15.7667Z" fill="black"/>
</g>
<defs>
<clipPath id="clip0">
<rect width="21" height="22" fill="white"/>
</clipPath>
</defs>
</svg>
