<svg width="32" height="43" viewBox="0 0 32 43" fill="none" xmlns="http://www.w3.org/2000/svg">
<path d="M15.6333 0C7 0 0 7.08791 0 15.8297C0 17.956 0.466667 20.0824 1.16667 22.2088C3.5 27.4066 15.6333 42.5275 15.6333 42.5275C15.6333 42.5275 26.6 28.8242 29.6333 22.4451C30.5667 20.3187 31.2667 17.2473 31.2667 15.8297C31.2667 7.08791 24.2667 0 15.6333 0ZM27.3 21.2637C25.2 25.7527 18.9 34.022 15.6333 38.2747C11.6667 33.0769 5.13333 24.3352 3.5 21.0275C2.8 19.3736 2.56667 17.4835 2.56667 15.8297C2.56667 8.5055 8.4 2.5989 15.6333 2.5989C22.8667 2.5989 28.7 8.5055 28.7 15.8297C28.7 16.7747 28.2333 19.3736 27.3 21.2637Z" fill="black"/>
<path d="M15.6326 7.79675C11.1992 7.79675 7.69922 11.3407 7.69922 15.8297C7.69922 20.3187 11.1992 23.8627 15.6326 23.8627C20.0659 23.8627 23.5659 20.3187 23.5659 15.8297C23.5659 11.3407 19.8326 7.79675 15.6326 7.79675ZM15.6326 21.2638C12.8326 21.2638 10.4992 18.9011 10.4992 16.066C10.4992 13.2308 12.8326 10.8682 15.6326 10.8682C18.4326 10.8682 20.7659 13.2308 20.7659 16.066C20.7659 18.9011 18.4326 21.2638 15.6326 21.2638Z" fill="black"/>
</svg>
