<svg width="25" height="40" viewBox="0 0 25 40" fill="none" xmlns="http://www.w3.org/2000/svg">
<path d="M25 12.7334C25 5.70006 19.4044 0 12.5 0C5.59556 0 0 5.70006 0 12.7334C0 16.8964 1.96889 20.5795 5 22.9021V40L12.5 32.3599L20 40V22.9021C23.0311 20.5795 25 16.8964 25 12.7334ZM2.5 12.7334C2.5 7.11715 6.98667 2.54669 12.5 2.54669C18.0133 2.54669 22.5 7.11715 22.5 12.7334C22.5 18.3497 18.0133 22.9202 12.5 22.9202C6.98667 22.9202 2.5 18.3497 2.5 12.7334ZM17.5 33.854L12.5 28.7606L7.5 33.854V24.4007C9.03111 25.0821 10.72 25.4669 12.5 25.4669C14.28 25.4669 15.9689 25.0821 17.5 24.4007V33.854Z" fill="black"/>
</svg>
