<svg width="43" height="23" viewBox="0 0 43 23" fill="none" xmlns="http://www.w3.org/2000/svg">
<path d="M35.3048 22.5784H24.4277L22.6672 21.1864H19.9198L18.1822 22.5784H7.70575C6.51234 22.5741 5.36914 22.0976 4.52612 21.2528C3.6831 20.4081 3.20884 19.2639 3.20703 18.0705V7.53913C3.20702 6.34431 3.68041 5.19815 4.52356 4.35156C5.36671 3.50498 6.51094 3.02694 7.70575 3.02209H35.3048C36.5008 3.02391 37.6473 3.49999 38.4928 4.34591C39.3383 5.19183 39.8137 6.33854 39.815 7.53455V18.0659C39.8143 19.2621 39.3391 20.4092 38.4934 21.2552C37.6478 22.1013 36.501 22.5772 35.3048 22.5784ZM25.2313 20.2889H35.3048C35.8934 20.2889 36.4579 20.0553 36.8743 19.6393C37.2907 19.2233 37.5249 18.6591 37.5255 18.0705V7.53913C37.5249 6.95013 37.2908 6.38539 36.8746 5.96869C36.4583 5.55199 35.8938 5.31731 35.3048 5.3161H7.70575C7.11675 5.31731 6.55225 5.55199 6.13598 5.96869C5.71971 6.38539 5.48562 6.95013 5.48501 7.53913V18.0705C5.48562 18.6591 5.71986 19.2233 6.13626 19.6393C6.55266 20.0553 7.11717 20.2889 7.70575 20.2889H17.3717L19.1071 18.897H23.457L25.2313 20.2889Z" fill="black"/>
<path d="M4.34991 17.2643H2.14061C1.8595 17.2643 1.58115 17.2089 1.32144 17.1013C1.06172 16.9937 0.825745 16.8361 0.626971 16.6373C0.428197 16.4385 0.27052 16.2025 0.162944 15.9428C0.0553686 15.6831 0 15.4048 0 15.1236L0 9.48021C0 8.91249 0.225528 8.36801 0.626971 7.96657C1.02841 7.56513 1.57289 7.3396 2.14061 7.3396H4.34991V9.62903H2.14061L2.28943 15.1236L4.34991 14.9748V17.2643Z" fill="black"/>
<path d="M40.8685 17.2643H38.6683V14.9748H40.8685L40.7197 9.48021L38.6592 9.62903V7.3396H40.8593C41.4269 7.34021 41.971 7.56593 42.3723 7.96724C42.7736 8.36855 42.9993 8.91267 42.9999 9.48021V15.1236C42.9993 15.6896 42.7749 16.2323 42.3755 16.6334C41.9762 17.0345 41.4344 17.2612 40.8685 17.2643Z" fill="black"/>
<path d="M32.0817 5.18784L28.1165 3.15254C27.0149 2.58689 25.7947 2.29106 24.5564 2.28943H18.9267C17.4997 2.28899 16.0999 2.67934 14.879 3.41811L12.031 5.14663L10.8496 3.18917L13.6999 1.46065C15.2763 0.505977 17.0838 0.000851182 18.9267 0L24.5564 0C26.1574 0.00213012 27.7352 0.383424 29.1604 1.11266L33.1257 3.14796L32.0817 5.18784Z" fill="black"/>
</svg>
