<svg width="25" height="40" viewBox="0 0 25 40" fill="none" xmlns="http://www.w3.org/2000/svg">
<path d="M11.8304 9.77782C12.0536 9.5556 12.0536 9.33337 12.0536 8.88893C12.0536 8.00004 11.3839 7.33337 10.4911 7.33337C9.82143 7.33337 9.15179 8.00004 9.15179 8.88893C9.15179 9.11115 9.375 9.5556 9.375 9.77782V15.1112H7.14286V13.5556H4.6875V15.1112H0V40H15.8482V15.1112H11.8304V9.77782ZM13.3929 37.5556H2.45536V22.8889H13.3929V37.5556ZM13.3929 17.5556V20.4445H2.45536V17.5556H13.3929Z" fill="black"/>
<path d="M18.5269 2.88892L16.7412 4.66669C19.1966 7.11114 19.1966 10.8889 16.7412 13.3334L18.5269 15.1111C21.8751 11.5556 21.8751 6.22225 18.5269 2.88892Z" fill="black"/>
<path d="M15.6251 12C17.4108 10.2222 17.4108 7.33332 15.6251 5.55554L13.8394 7.55554C14.7322 8.44443 14.7322 9.55554 13.8394 10.4444L15.6251 12Z" fill="black"/>
<path d="M21.2051 0L19.6426 1.77778C23.6604 5.77778 23.6604 12.2222 19.6426 16.2222L21.2051 17.7778C26.339 12.8889 26.339 4.88889 21.2051 0Z" fill="black"/>
</svg>
