<svg width="38" height="38" viewBox="0 0 38 38" fill="none" xmlns="http://www.w3.org/2000/svg">
<path d="M35.0316 19.1183C35.0316 27.9427 27.8517 35.1226 19.0273 35.1226C14.0176 35.1226 9.42386 32.8511 6.36908 28.8948H11.2732V26.5325H2.45508V35.9248H4.81741V30.7167C8.32186 35.015 13.4455 37.4892 19.0273 37.4892C29.1564 37.4892 37.394 29.2516 37.394 19.1225H35.0316V19.1183Z" fill="black"/>
<path d="M19.0289 3.11392C24.0449 3.11392 28.6514 5.39392 31.6914 9.3417H26.6142V11.704H35.4576V2.31381H33.0953V7.35514C29.595 3.16036 24.5305 0.751587 19.0268 0.751587C8.89771 0.751587 0.660156 8.98914 0.660156 19.1183H3.02249C3.0246 10.2938 10.2045 3.11392 19.0289 3.11392Z" fill="black"/>
<path d="M15.7801 25.194C16.4662 25.8717 17.3318 26.2981 18.3726 26.4712V19.5616C17.0384 19.2322 15.3685 18.7425 14.3192 17.8537C13.3228 17.0135 13.0294 15.8502 13.0294 14.5287C13.0294 12.9981 13.6015 11.6639 14.581 10.6822C15.5965 9.67102 16.9687 9.15169 18.3747 9.05246V7.33191H19.8081V9.07991C21.2162 9.25302 22.3372 9.77658 23.1711 10.6442C24.005 11.514 24.5961 12.7131 24.9445 14.2437H22.7278C22.3795 12.5231 21.4084 11.514 19.8081 11.2185V17.6341C21.3471 18.0711 21.5836 18.0395 22.599 18.5081C24.1845 19.2407 25.5187 20.767 25.5187 22.9014C25.5187 24.5881 24.9191 25.9181 23.9016 26.8787C22.8059 27.9237 21.3091 28.4092 19.8081 28.5359V30.6724H18.3726V28.5359C16.6351 28.3628 15.2524 27.7569 14.2264 26.7246C13.2025 25.688 12.6198 24.2588 12.4805 22.4348H14.6971C14.733 23.5938 15.094 24.5142 15.7801 25.194ZM16.2488 12.0376C15.6661 12.5506 15.3748 13.3021 15.3748 14.2944C15.3748 15.086 15.6176 15.7806 16.2235 16.264C16.7998 16.7369 17.6548 17.043 18.3726 17.2415V11.1404C17.5387 11.2269 16.8315 11.5267 16.2488 12.0376ZM22.2211 25.5972C22.9262 24.9702 23.1711 24.0836 23.1711 23.1336C23.1711 22.3187 22.9347 21.5967 22.2085 20.995C21.5688 20.4736 20.604 20.1611 19.8081 19.9268V26.4712C20.6842 26.41 21.5604 26.1799 22.2211 25.5972Z" fill="black"/>
</svg>
