<svg width="21" height="21" viewBox="0 0 21 21" fill="none" xmlns="http://www.w3.org/2000/svg">
<path d="M4.23486 15.225H16.9865V9.83496H4.23486V15.225ZM5.52986 11.13H15.6682V13.9183H5.52986V11.13Z" fill="black"/>
<path d="M10.5 0C4.70167 0 0 4.70167 0 10.5C0 16.2983 4.70167 21 10.5 21C16.2983 21 21 16.2983 21 10.5C21 4.70167 16.2983 0 10.5 0ZM10.5 19.6933C5.425 19.6933 1.30667 15.575 1.30667 10.5C1.30667 5.425 5.425 1.30667 10.5 1.30667C15.575 1.30667 19.6933 5.425 19.6933 10.5C19.6817 15.575 15.575 19.6817 10.5 19.6933Z" fill="black"/>
<path d="M12.8215 6.14824C12.8215 6.13658 12.8215 6.13658 12.8215 6.14824C11.5965 4.92324 9.60146 4.92324 8.37646 6.14824L8.97147 6.74324C9.88147 5.83324 11.3281 5.83324 12.2381 6.73158L12.8215 6.14824Z" fill="black"/>
<path d="M9.4502 7.21009L10.0452 7.80509C10.3602 7.50175 10.8502 7.50175 11.1652 7.80509L11.7602 7.21009C11.1185 6.59175 10.0919 6.59175 9.4502 7.21009Z" fill="black"/>
<path d="M13.2999 5.66996L13.8949 5.07496C12.0749 3.25496 9.13494 3.25496 7.31494 5.07496L7.90994 5.66996C9.40328 4.18829 11.8066 4.18829 13.2999 5.66996Z" fill="black"/>
</svg>
