<svg width="29" height="27" viewBox="0 0 29 27" fill="none" xmlns="http://www.w3.org/2000/svg">
<g clip-path="url(#clip0)">
<path d="M14.4706 6.65352C13.9016 6.66119 13.3589 6.89352 12.9619 7.29942C12.565 7.70532 12.3462 8.25156 12.3537 8.81801C12.3628 9.1923 12.4717 9.55745 12.6694 9.87596C12.8671 10.1945 13.1464 10.4548 13.4786 10.6304V27.0001H15.5208V10.6363C15.8621 10.4553 16.1473 10.1849 16.3456 9.85438C16.5438 9.52381 16.6476 9.14562 16.6457 8.76062C16.6419 8.48008 16.5826 8.20304 16.4712 7.94531C16.3599 7.68758 16.1986 7.45422 15.9966 7.25855C15.7946 7.06288 15.5559 6.90874 15.294 6.80493C15.0322 6.70111 14.7524 6.64967 14.4706 6.65352Z" fill="black"/>
<path d="M22.4541 2.87561L21.0098 4.31304C21.6004 4.90083 22.0689 5.59868 22.3885 6.36674C22.7081 7.1348 22.8726 7.95802 22.8726 8.78938C22.8726 9.62074 22.7081 10.444 22.3885 11.212C22.0689 11.9801 21.6004 12.6779 21.0098 13.2657L22.4541 14.7031C23.2345 13.9267 23.8535 13.0048 24.2759 11.9901C24.6982 10.9754 24.9156 9.88776 24.9156 8.7894C24.9156 7.69104 24.6982 6.60344 24.2759 5.58874C23.8535 4.57404 23.2345 3.65212 22.4541 2.87566V2.87561Z" fill="black"/>
<path d="M18.1221 7.18979C18.5482 7.61425 18.7876 8.1898 18.7876 8.78991C18.7876 9.39002 18.5482 9.96557 18.1221 10.39L19.5656 11.8275C19.9664 11.4285 20.2844 10.9548 20.5013 10.4335C20.7182 9.91221 20.8298 9.35348 20.8298 8.78922C20.8298 8.22497 20.7182 7.66624 20.5013 7.14493C20.2844 6.62363 19.9664 6.14996 19.5656 5.75098L18.1221 7.18979Z" fill="black"/>
<path d="M25.3437 0L23.8994 1.43743C25.8578 3.38738 26.958 6.03186 26.958 8.78924C26.958 11.5466 25.8578 14.1911 23.8994 16.141L25.3438 17.5786C27.685 15.2473 29.0002 12.0858 29.0002 8.78929C29.0002 5.49279 27.685 2.33127 25.3437 0V0Z" fill="black"/>
<path d="M6.54549 2.87561C5.76512 3.65208 5.14608 4.57399 4.72372 5.5887C4.30137 6.6034 4.08398 7.69099 4.08398 8.78935C4.08398 9.88771 4.30137 10.9753 4.72372 11.99C5.14608 13.0047 5.76512 13.9266 6.54549 14.7031L7.98982 13.2657C7.39924 12.678 6.93075 11.9803 6.61112 11.2123C6.29149 10.4444 6.12697 9.62125 6.12697 8.78999C6.12697 7.95873 6.29149 7.13561 6.61112 6.36766C6.93075 5.59971 7.39924 4.90197 7.98982 4.31431L6.54549 2.87561Z" fill="black"/>
<path d="M9.43509 5.75098C9.03429 6.14996 8.71636 6.62363 8.49945 7.14493C8.28254 7.66624 8.1709 8.22497 8.1709 8.78922C8.1709 9.35348 8.28254 9.91221 8.49945 10.4335C8.71636 10.9548 9.03429 11.4285 9.43509 11.8275L10.8786 10.39C10.4525 9.96557 10.2131 9.39002 10.2131 8.78991C10.2131 8.1898 10.4525 7.61425 10.8786 7.18979L9.43509 5.75098Z" fill="black"/>
<path d="M5.10078 1.43743L3.65646 0C1.31524 2.33128 0 5.4928 0 8.78929C0 12.0858 1.31524 15.2473 3.65646 17.5786L5.10078 16.1411C3.14237 14.1912 2.04218 11.5467 2.04218 8.7893C2.04218 6.03192 3.14237 3.38745 5.10078 1.4375V1.43743Z" fill="black"/>
</g>
<defs>
<clipPath id="clip0">
<rect width="29" height="27" fill="white"/>
</clipPath>
</defs>
</svg>
