<svg width="37" height="33" viewBox="0 0 37 33" fill="none" xmlns="http://www.w3.org/2000/svg">
<path d="M8.22224 32.5888H0.411133V22.5166H8.22224V32.5888ZM2.67224 30.3277H5.75558V24.7777H2.67224V30.3277Z" fill="black"/>
<path d="M17.8834 32.5889H10.2778V10.8H17.8834V32.5889ZM12.5389 30.3278H15.4167V13.0612H12.5389V30.3278Z" fill="black"/>
<path d="M27.1334 32.5889H19.7334V17.7889H27.1334V32.5889ZM22.2001 30.3278H24.8723V20.0501H22.2001V30.3278Z" fill="black"/>
<path d="M36.7945 32.589H29.189V13.4723H36.7945V32.589ZM31.6556 30.1223H34.5334V15.7334H31.6556V30.1223Z" fill="black"/>
<path d="M1.64444 18.2L0 16.7611L12.95 0.522217L24.05 11.6222L35.3556 2.57777L36.7944 4.42777L23.8444 14.7056L13.1556 3.81111L1.64444 18.2Z" fill="black"/>
</svg>
