<svg width="30" height="30" viewBox="0 0 30 30" fill="none" xmlns="http://www.w3.org/2000/svg">
<path d="M8.66602 19.3334L9.99935 20.6667C12.666 18.0001 17.166 18.0001 19.8327 20.6667L21.166 19.3334C19.4993 17.6667 17.3327 16.6667 14.9993 16.6667C12.666 16.8334 10.3327 17.6667 8.66602 19.3334Z" fill="black"/>
<path d="M4.16602 15L5.49935 16.3333C8.16602 13.8333 11.3327 12.3333 14.9993 12.3333C18.4993 12.3333 21.8327 13.6667 24.3327 16.1667L25.666 15C22.8327 12.1667 18.9993 10.5 14.9993 10.5C10.8327 10.5 7.16602 12 4.16602 15Z" fill="black"/>
<path d="M15 4.33337C9.33333 4.33337 4 6.50004 0 10.5L1.33333 11.8334C5 8.33337 9.83333 6.33337 15 6.33337C20.1667 6.33337 25 8.33337 28.6667 12L30 10.5C26 6.50004 20.6667 4.33337 15 4.33337Z" fill="black"/>
<path d="M12.666 23.3334L14.8327 25.5L16.9993 23.3334C15.8327 22.1667 13.8327 22.1667 12.666 23.3334Z" fill="black"/>
</svg>
