<svg width="19" height="20" viewBox="0 0 19 20" fill="none" xmlns="http://www.w3.org/2000/svg">
<path d="M9.5 0.5C4.22222 0.5 0 4.72222 0 10C0 15.2778 4.22222 19.5 9.5 19.5C14.7778 19.5 19 15.2778 19 10C19 4.72222 14.7778 0.5 9.5 0.5ZM9.5 18.3389C4.85556 18.3389 1.16111 14.6444 1.16111 10C1.16111 5.35556 4.85556 1.66111 9.5 1.66111C14.1444 1.66111 17.8389 5.35556 17.8389 10C17.8389 14.5389 14.1444 18.3389 9.5 18.3389Z" fill="white"/>
<path d="M10.3445 7.88867H8.8667V14.8553H10.3445V7.88867Z" fill="white"/>
<path d="M10.3445 5.14453H8.8667V6.51675H10.3445V5.14453Z" fill="white"/>
</svg>
