<svg width="39" height="24" viewBox="0 0 39 24" fill="none" xmlns="http://www.w3.org/2000/svg">
<path d="M-1.43051e-06 -1.70474e-06L-2.47958e-06 24L39 24L39 0L-1.43051e-06 -1.70474e-06ZM36.6167 2.35714L36.6167 21.6429L32.9333 21.6429L32.9333 2.35714L36.6167 2.35714V2.35714ZM30.55 2.35714L30.55 21.6429L8.66666 21.6429L8.66667 2.35714L30.55 2.35714V2.35714ZM6.06667 2.35714L6.06667 9.64286L3.68333 9.64286L3.68333 14.3571L6.06667 14.3571L6.06666 21.6429L2.38333 21.6429L2.38333 2.35714L6.06667 2.35714V2.35714Z" fill="black"/>
<path d="M16.3386 10.0242C17.9943 8.63308 20.4318 8.84475 21.762 10.4952C22.4297 11.2899 22.655 12.2304 22.6366 13.1498L21.468 11.759L20.872 12.2598L22.8752 14.644L25.2594 12.6408L24.7586 12.0447L23.4341 13.1576C23.4684 12.0555 23.1371 10.9216 22.3527 10.0553C20.6834 8.06844 17.8193 7.81973 15.8325 9.4891C14.243 10.8246 13.7425 13.0528 14.564 14.9046L15.3323 14.5416C14.6009 13.0659 15.0087 11.1981 16.3386 10.0242Z" fill="black"/>
</svg>
