<svg width="19" height="20" viewBox="0 0 19 20" fill="none" xmlns="http://www.w3.org/2000/svg">
<path d="M9.5 0.5C4.22222 0.5 0 4.72222 0 10C0 11.9 0.527778 13.5889 1.47778 15.0667L0.316667 19.3944L4.53889 18.1278C6.01667 18.9722 7.70556 19.5 9.5 19.5C14.7778 19.5 19 15.2778 19 10C19 4.72222 14.7778 0.5 9.5 0.5ZM9.5 18.3389C6.75556 18.3389 4.85556 16.8611 4.64444 16.8611C4.53889 16.8611 1.79444 17.7056 2.00556 17.7056C2.00556 17.6 2.74444 15.1722 2.74444 14.9611C2.63889 14.5389 1.16111 13.0611 1.16111 10C1.16111 5.46111 4.85556 1.66111 9.5 1.66111C14.1444 1.66111 17.8389 5.46111 17.8389 10C17.8389 14.5389 14.1444 18.3389 9.5 18.3389Z" fill="white"/>
<path d="M9.6056 13.167C8.97227 13.167 8.55005 13.6948 8.55005 14.2225C8.55005 14.7503 9.07783 15.2781 9.6056 15.2781C10.2389 15.2781 10.6612 14.7503 10.6612 14.2225C10.6612 13.6948 10.1334 13.167 9.6056 13.167Z" fill="white"/>
<path d="M9.71117 5.25C7.91673 5.25 6.75562 6.41111 6.75562 8.31111H8.12784C8.12784 7.25556 8.55006 6.41111 9.60562 6.41111C10.2389 6.41111 10.8723 6.93889 10.8723 7.78333C10.8723 8.83889 10.0278 9.05 9.3945 9.78889C8.86673 10.3167 8.86673 11.1611 8.86673 11.9H10.2389C10.2389 10.8444 10.5556 10.4222 11.2945 9.78889C11.9278 9.26111 12.3501 8.83889 12.3501 7.67778C12.4556 6.2 11.2945 5.25 9.71117 5.25Z" fill="white"/>
</svg>
