<svg width="189" height="41" viewBox="0 0 189 41" fill="none" xmlns="http://www.w3.org/2000/svg">
<path fill-rule="evenodd" clip-rule="evenodd" d="M184.926 0L174.915 21.8122L171.074 13.559H167L173.286 27H176.545L189 0H184.926Z" fill="#CD040B"/>
<path fill-rule="evenodd" clip-rule="evenodd" d="M141 40.8814H149.311V25.8136C149.311 22.3729 151.329 20 154.297 20C157.146 20 158.689 22.0169 158.689 24.8644V41H167V23.2034C167 17.2712 163.438 13 157.621 13C153.941 13 151.329 14.5424 149.311 17.5085H149.192V13.8305H141.237V40.8814H141ZM124.499 13C115.752 13 110 19.0165 110 27C110 34.8678 115.872 41 124.499 41C133.246 41 138.998 34.8678 138.998 27C139.118 19.1322 133.246 13 124.499 13ZM123.941 35C120.02 35 118 31.8 118 27C118 22.2 120.02 19 123.941 19C127.861 19 130 22.0857 130 27C130 31.8 127.861 35 123.941 35ZM86 40H109V33.5153H96.0256V33.3974L108.528 19.3668V13H86.118V19.4847H98.7385V19.6026L86 33.7511V40ZM76 40H84V13H76V40ZM56 40H64.3217V27.6739C64.3217 22.0391 67.7692 19.5739 72.8811 20.2783H73V13.2348C72.5245 13.1174 72.049 13 71.3357 13C68.1259 13 65.986 14.4087 64.0839 17.5783H63.965V13.1174H56.1189V40H56ZM40.5408 35.3071C36.8155 35.3071 34.6524 32.9834 34.1717 29.3817H54C54 23.6888 52.5579 19.1577 49.1931 16.2531C46.9099 14.1618 43.7854 13 39.9399 13C31.6481 13 26 19.0415 26 26.9419C26 34.9585 31.4077 41 40.5408 41C44.0257 41 46.6695 40.0705 48.9528 38.5602C51.3562 36.9336 53.0386 34.61 53.5193 32.2863H45.4678C44.6266 34.2614 42.9442 35.3071 40.5408 35.3071ZM39.7957 19C42.7527 19 44.6452 21 45 24H34C34.5914 21 36.3656 19 39.7957 19ZM9.57576 40H18.4242L28 13H19.5152L14.0606 30.4079H13.9394L8.72727 13H0L9.57576 40ZM76 4H84V11H76V4Z" fill="black"/>
</svg>
