<svg width="38" height="37" viewBox="0 0 38 37" fill="none" xmlns="http://www.w3.org/2000/svg">
<path d="M22.246 8.1795V13.0913L18.1151 17.2222L17.8274 19.2568L19.7592 18.8663L23.9106 14.7149H28.8224L37.0019 6.55593H30.4255V0L22.246 8.1795ZM24.5683 9.12487L28.1237 5.56946V7.21358L24.5683 10.769V9.12487ZM27.8565 12.4131H26.2124L29.7678 8.8577H31.4119L27.8565 12.4131Z" fill="black"/>
<path d="M33.716 13.0913C36.7371 21.538 32.3391 30.8478 23.8924 33.8689C15.4457 36.89 6.13591 32.4919 3.11484 24.0453C0.0937689 15.5986 4.49179 6.28876 12.9385 3.26769C16.4733 1.9935 20.3576 1.9935 23.8924 3.26769L25.701 1.45916C16.3089 -2.50728 5.45771 1.89074 1.47072 11.2828C-2.51627 20.6748 1.88175 31.526 11.2943 35.513C20.7069 39.5 31.5376 35.102 35.5246 25.6894C37.477 21.0858 37.477 15.8863 35.5246 11.2828L33.716 13.0913Z" fill="black"/>
<path d="M19.9442 7.21321L20.0675 7.08991C19.5332 7.0077 19.0194 6.94604 18.4851 6.94604C12.0935 6.94604 6.91455 12.1045 6.91455 18.496C6.91455 24.8875 12.0935 30.0459 18.4645 30.0459C24.8355 30.0459 30.0145 24.867 30.0145 18.496C29.9939 17.9617 29.9528 17.4273 29.85 16.9135L29.7267 17.0368H27.5483C27.6305 17.5095 27.6921 18.0028 27.6921 18.496C27.6921 23.6133 23.5613 27.7442 18.4439 27.7442C13.3266 27.7442 9.19577 23.6133 9.19577 18.496C9.19577 13.3787 13.3266 9.24781 18.4439 9.24781C18.9372 9.24781 19.4304 9.30947 19.9031 9.39167V7.21321H19.9442Z" fill="black"/>
<path d="M18.7932 13.9138C18.6904 13.9138 18.5877 13.8932 18.4849 13.8932C15.9365 13.8727 13.8608 15.9484 13.8608 18.4968C13.8608 21.0451 15.9365 23.1208 18.4849 23.1208C21.0333 23.1208 23.109 21.0451 23.109 18.4968C23.109 18.394 23.0885 18.2912 23.0679 18.1885L20.1291 20.1203C19.2248 21.0246 17.7656 21.0451 16.8614 20.1409C15.9571 19.2366 15.9365 17.7775 16.8408 16.8732L18.7932 13.9138Z" fill="black"/>
</svg>
