<svg width="35" height="35" viewBox="0 0 35 35" fill="none" xmlns="http://www.w3.org/2000/svg">
<path d="M32.8175 9.05034L31.1556 10.7323C31.9966 12.4342 32.5372 14.3164 32.6974 16.2986H28.2122V18.5412H32.6974C32.1768 26.0297 26.23 32.0566 18.7614 32.6773V28.2122H16.4989V32.6974C8.93021 32.1968 2.86327 26.1899 2.30263 18.6413H6.56751V16.3787H2.30263C2.86327 8.85011 8.89016 2.84325 16.4188 2.30263V6.56751H18.6613V2.30263C21.845 2.54291 24.7683 3.7643 27.111 5.66648L28.7128 4.06465C25.6693 1.54176 21.7649 0 17.5 0C7.84897 0 0 7.84897 0 17.5C0 27.151 7.84897 35 17.5 35C27.151 35 35 27.151 35 17.5C35 14.4365 34.1991 11.5532 32.8175 9.05034ZM17.5 32.7374C17.48 32.7374 17.4399 32.7374 17.4199 32.7374H17.5801C17.54 32.7374 17.52 32.7374 17.5 32.7374ZM32.7374 17.7603V17.2197C32.7374 17.3198 32.7574 17.3999 32.7574 17.5C32.7374 17.6001 32.7374 17.6802 32.7374 17.7603Z" fill="#010101"/>
<path d="M17.6003 18.2007L12.054 12.5342L10.4321 14.116L17.5803 21.4043L30.0546 8.86999L31.6564 7.24814L34.9802 3.92434L33.3784 2.32251L30.2147 5.50615L28.6329 7.10798L17.6003 18.2007Z" fill="#010101"/>
</svg>
