<svg width="25" height="26" viewBox="0 0 25 26" fill="none" xmlns="http://www.w3.org/2000/svg">
<g clip-path="url(#clip0)">
<path d="M7.54688 18.5052H17.4522V8.48267H7.54688V18.5052ZM9.05919 10.0134H15.9392V16.9742H9.05919V10.0134Z" fill="black"/>
<path d="M25 5.5966V4.06582H21.5122V0H19.9999V4.06582H15.8508V0H14.3379V4.06582H10.3061V0H8.79313V4.06582H4.81704V0H3.30404V4.06582H0V5.5966H3.30404V9.61987H0V11.1506H3.30404V15.2304H0V16.7611H3.30404V20.9594H0V22.4903H3.30404V25.9482H4.81704V22.6431H8.79313V26H10.3061V22.6431H14.3379V26H15.8509V22.6431H19.9999V25.9483H21.5122V22.4903H25V20.9594H21.5122V16.7611H25V15.2304H21.5122V11.1506H25V9.61987H21.5122V5.5966H25ZM4.81704 5.5966H19.9999V21.1124H4.81704V5.5966Z" fill="black"/>
</g>
<defs>
<clipPath id="clip0">
<rect width="25" height="26" fill="white"/>
</clipPath>
</defs>
</svg>
