<svg width="19" height="20" viewBox="0 0 19 20" fill="none" xmlns="http://www.w3.org/2000/svg">
<path d="M19 4.30508V3.12756H16.3493V0H15.1999V3.12756H12.0466V0H10.8968V3.12756H7.83266V0H6.68278V3.12756H3.66095V0H2.51107V3.12756H0V4.30508H2.51107V7.3999H0V8.57742H2.51107V11.7157H0V12.8932H2.51107V16.1226H0V17.3003H2.51107V19.9601H3.66095V17.4178H6.68278V20H7.83266V17.4178H10.8968V20H12.0467V17.4178H15.1999V19.9602H16.3493V17.3003H19V16.1226H16.3493V12.8932H19V11.7157H16.3493V8.57742H19V7.3999H16.3493V4.30508H19ZM3.66095 4.30508H15.1999V16.2403H3.66095V4.30508Z" fill="black"/>
</svg>
