<svg width="35" height="31" viewBox="0 0 35 31" fill="none" xmlns="http://www.w3.org/2000/svg">
<path d="M17.3097 28.5276C16.9293 26.0552 15.5978 23.773 13.3152 22.4417V12.362L25.6793 8.3681V11.6012L21.8749 15.4049C21.6847 15.5951 21.4945 15.7853 21.4945 16.1656V18.2577C21.4945 18.4479 21.4945 18.638 21.6847 18.8282L23.7771 22.0613L25.4891 20.9202L23.5869 18.0675V16.546L26.0597 14.0736H27.201L29.6739 16.546V17.8773L27.7717 20.7301L29.4836 21.8712L31.576 18.638C31.7662 18.4479 31.7662 18.2577 31.7662 18.0675V16.1656C31.7662 15.9755 31.576 15.5951 31.3858 15.4049L27.5815 11.6012V7.60736H27.7717C29.8641 7.03681 30.8152 4.7546 30.2445 2.85276C29.6739 1.33129 28.3423 0.190186 26.6304 0.190186H8.74994C5.13581 0.190186 2.09233 3.23313 2.09233 6.84663C2.09233 8.74847 2.8532 10.6503 4.37494 11.7914V22.2515C2.28254 23.5828 0.760806 25.865 0.380371 28.3374V30.4294H34.6195V28.5276H17.3097ZM7.98907 2.28221C8.17928 2.28221 8.3695 2.28221 8.74994 2.28221H9.89124H24.9184H26.6304C27.5815 2.28221 28.3423 3.04295 28.3423 3.99387C28.3423 4.7546 27.9619 5.32516 27.201 5.51534L26.0597 5.89571L12.1739 10.4601L10.2717 11.0307C9.89124 11.2209 9.70102 11.2209 9.51081 11.411C9.13037 11.411 8.94015 11.411 8.74994 11.411C6.27711 11.411 4.18472 9.31902 4.18472 6.84663C4.18472 4.56442 5.89668 2.66258 7.98907 2.28221ZM6.46733 13.1227C7.2282 13.3129 7.98907 13.5031 8.74994 13.5031C9.51081 13.5031 10.0815 13.3129 10.8423 13.1227L11.2228 12.9325V21.3006C10.4619 21.1104 9.70102 20.9202 8.94015 20.9202C8.17928 20.9202 7.41841 21.1104 6.65755 21.3006L6.46733 13.1227ZM8.74994 23.2025C11.7934 23.2025 14.4565 25.4847 15.0271 28.5276H2.47276C3.04341 25.4847 5.70646 23.2025 8.74994 23.2025Z" fill="black"/>
</svg>
