<svg width="38" height="27" viewBox="0 0 38 27" fill="none" xmlns="http://www.w3.org/2000/svg">
<path d="M32.4477 0L30.7588 1.69545C37.3243 8.2865 37.3243 18.9042 30.7588 25.2834L32.4477 26.9788C39.8577 19.5612 39.8577 7.43878 32.4477 0Z" fill="black"/>
<path d="M7.24297 1.69545L5.55408 0C-1.85592 7.43878 -1.85592 19.5612 5.55408 27L7.24297 25.3046C0.909637 18.9042 0.909637 8.2865 7.24297 1.69545Z" fill="black"/>
<path d="M28.4155 4.4718L26.7266 6.16725C30.9699 10.2151 30.9699 16.9969 26.7266 21.2567L28.4155 22.9522C33.2921 17.6327 33.2921 9.55814 28.4155 4.4718Z" fill="black"/>
<path d="M10.0068 4.4718C4.91897 9.57934 4.91897 17.8658 10.0068 22.9522L11.6956 21.2567C7.45231 17.2089 7.45231 10.4271 11.6956 6.16725L10.0068 4.4718Z" fill="black"/>
<path d="M19.1056 7.65063C15.7278 7.65063 13.1733 10.1938 13.1733 13.6059C13.1733 16.9968 15.9178 19.5612 19.1056 19.5612C22.2722 19.5612 25.0378 16.8061 25.0378 13.6059C25.0378 11.9104 24.4045 10.4269 23.3489 9.34608C22.2722 8.28643 20.7945 7.65063 19.1056 7.65063ZM21.6389 16.1491C20.1611 17.6326 18.05 17.6326 16.5511 16.1491C15.0733 14.6655 15.0733 12.5462 16.5511 11.0415C18.0289 9.55801 20.14 9.55801 21.6389 11.0415C23.1378 12.3343 23.1378 14.6655 21.6389 16.1491Z" fill="black"/>
</svg>
