<svg width="38" height="38" viewBox="0 0 38 38" fill="none" xmlns="http://www.w3.org/2000/svg">
<path d="M0 38H19V9.5H0V38ZM2.36444 11.8644H16.6144V29.6822H2.36444V11.8644ZM2.36444 32.0678H7.11444V34.4322H11.8644V32.0678H16.6144V35.6356H2.36444V32.0678Z" fill="black"/>
<path d="M21.5127 9.37329V11.7377C24.1305 11.7377 26.2627 13.87 26.2627 16.4877H28.6271C28.6271 12.5611 25.4394 9.37329 21.5127 9.37329Z" fill="black"/>
<path d="M21.5127 4.62329V6.98774C26.7483 6.98774 31.0127 11.2522 31.0127 16.4877H33.3771C33.3771 9.94329 28.0571 4.62329 21.5127 4.62329Z" fill="black"/>
<path d="M21.5332 0V2.36444C29.3021 2.36444 35.6143 8.67667 35.6143 16.4456H37.9999C37.9999 7.38889 30.611 0 21.5332 0Z" fill="black"/>
</svg>
