<svg width="41" height="41" viewBox="0 0 41 41" fill="none" xmlns="http://www.w3.org/2000/svg">
<g clip-path="url(#clip0)">
<path d="M33.3808 21.6776C33.3808 21.6776 27.322 14.1427 26.3152 11.972C25.8847 10.9812 25.6729 9.96071 25.6729 8.9061C25.6729 4.68082 29.11 1.24365 33.3353 1.24365C37.5606 1.24365 41 4.6831 41 8.9061C41 9.73065 40.7449 11.0996 40.2575 12.1223C38.966 14.8169 33.3808 21.6776 33.3808 21.6776ZM33.3376 3.79021C30.5154 3.79021 28.2194 6.08621 28.2194 8.9061C28.2194 9.60993 28.3583 10.291 28.6362 10.931C29.2262 12.1998 31.7363 15.5117 33.3877 17.614C34.7521 15.8738 37.146 12.7259 37.9592 11.0267C38.2826 10.3502 38.4535 9.36165 38.4535 8.90838C38.4557 6.08621 36.1575 3.79021 33.3376 3.79021ZM33.3376 12.3592C31.4538 12.3592 29.9232 10.8263 29.9232 8.94482C29.9232 7.06338 31.4538 5.53043 33.3376 5.53043C35.2213 5.53043 36.752 7.06338 36.752 8.94482C36.752 10.8263 35.2213 12.3592 33.3376 12.3592ZM33.3376 7.60093C32.595 7.60093 31.9914 8.20454 31.9914 8.9471C31.9914 9.68965 32.595 10.2933 33.3376 10.2933C34.0801 10.2933 34.6837 9.68965 34.6837 8.9471C34.6815 8.20226 34.0778 7.60093 33.3376 7.60093Z" fill="black"/>
<path d="M12.7259 8.00408C18.3407 8.00408 22.9076 12.571 22.9076 18.1857C22.9076 19.09 22.5659 21.058 21.9236 22.3996C20.3087 25.7776 15.5527 32.0369 12.8307 35.5082C9.53933 31.3194 4.54644 24.7366 3.37339 22.2129C2.82444 20.9396 2.54428 19.5843 2.54428 18.1835C2.54428 12.571 7.1135 8.00408 12.7259 8.00408ZM12.7259 5.45752C5.69672 5.45752 0 11.1565 0 18.1835C0 19.9738 0.369 21.6753 1.03639 23.2219C2.9725 27.388 12.8262 39.5946 12.8262 39.5946C12.8262 39.5946 21.7551 28.6476 24.2173 23.4975C25.0578 21.7436 25.4519 19.3907 25.4519 18.1835C25.4519 11.1565 19.7552 5.45752 12.7259 5.45752Z" fill="black"/>
<path d="M12.7259 24.2309C9.3935 24.2309 6.68066 21.5181 6.68066 18.1857C6.68066 14.8533 9.3935 12.1405 12.7259 12.1405C16.0583 12.1405 18.7711 14.8511 18.7711 18.1857C18.7711 21.5204 16.0583 24.2309 12.7259 24.2309ZM12.7259 14.6848C10.7966 14.6848 9.22722 16.2542 9.22722 18.1834C9.22722 20.1127 10.7966 21.6844 12.7259 21.6844C14.6552 21.6844 16.2246 20.115 16.2246 18.1857C16.2246 16.2564 14.6552 14.6848 12.7259 14.6848Z" fill="black"/>
<path d="M17.6278 39.7541C18.3272 39.7541 18.8942 39.1871 18.8942 38.4876C18.8942 37.7882 18.3272 37.2212 17.6278 37.2212C16.9283 37.2212 16.3613 37.7882 16.3613 38.4876C16.3613 39.1871 16.9283 39.7541 17.6278 39.7541Z" fill="black"/>
<path d="M22.2201 39.3987C22.9195 39.3987 23.4865 38.8317 23.4865 38.1323C23.4865 37.4329 22.9195 36.8658 22.2201 36.8658C21.5206 36.8658 20.9536 37.4329 20.9536 38.1323C20.9536 38.8317 21.5206 39.3987 22.2201 39.3987Z" fill="black"/>
<path d="M26.4564 37.5901C27.1558 37.5901 27.7228 37.0231 27.7228 36.3237C27.7228 35.6243 27.1558 35.0573 26.4564 35.0573C25.7569 35.0573 25.1899 35.6243 25.1899 36.3237C25.1899 37.0231 25.7569 37.5901 26.4564 37.5901Z" fill="black"/>
<path d="M29.9163 34.5539C30.6158 34.5539 31.1828 33.9869 31.1828 33.2874C31.1828 32.588 30.6158 32.021 29.9163 32.021C29.2169 32.021 28.6499 32.588 28.6499 33.2874C28.6499 33.9869 29.2169 34.5539 29.9163 34.5539Z" fill="black"/>
<path d="M32.3055 30.6452C33.0049 30.6452 33.572 30.0782 33.572 29.3787C33.572 28.6793 33.0049 28.1123 32.3055 28.1123C31.6061 28.1123 31.0391 28.6793 31.0391 29.3787C31.0391 30.0782 31.6061 30.6452 32.3055 30.6452Z" fill="black"/>
<path d="M33.3558 26.1649C34.0552 26.1649 34.6222 25.5978 34.6222 24.8984C34.6222 24.199 34.0552 23.632 33.3558 23.632C32.6564 23.632 32.0894 24.199 32.0894 24.8984C32.0894 25.5978 32.6564 26.1649 33.3558 26.1649Z" fill="black"/>
</g>
<defs>
<clipPath id="clip0">
<rect width="41" height="41" fill="white"/>
</clipPath>
</defs>
</svg>
