<svg width="30" height="30" viewBox="0 0 30 30" fill="none" xmlns="http://www.w3.org/2000/svg">
<path d="M0 0V30H30V0H0ZM28.1333 28.1333H1.86667V1.86667H28.1167V28.1333H28.1333Z" fill="black"/>
<path d="M9.53366 14.2334C12.917 12.7667 16.9003 12.8334 20.2003 14.4167L21.0503 14.8167L25.1003 6.31674L24.2503 5.91674C18.517 3.16674 11.617 3.06674 5.76699 5.5834L4.91699 5.96674L8.66699 14.6001L9.53366 14.2334ZM22.5837 7.21674L20.1503 12.3334C18.6837 11.7501 17.1337 11.4334 15.567 11.3334V6.98341H14.4337V11.3167C12.817 11.3334 11.1837 11.6167 9.65033 12.1667L7.38366 6.96674C12.2503 5.11674 17.8003 5.20007 22.5837 7.21674Z" fill="black"/>
</svg>
