<svg width="42" height="35" viewBox="0 0 42 35" fill="none" xmlns="http://www.w3.org/2000/svg">
<path d="M33.6001 4.20007L31.9668 6.30007C36.6335 9.80007 39.4335 15.1667 39.4335 21.0001C39.4335 21.9334 39.4335 22.6334 39.2001 23.5667L41.7668 23.8001C42.0001 22.8667 42.0001 21.9334 42.0001 21.0001C42.0001 14.2334 38.9668 8.16674 33.6001 4.20007Z" fill="black"/>
<path d="M35.7 31.9667H6.3C3.96667 28.7 2.56667 24.9667 2.56667 21C2.56667 10.9667 10.7333 2.56667 21 2.56667C23.3333 2.56667 25.4333 3.03333 27.5333 3.73333L28.4667 1.4C26.1333 0.466667 23.5667 0 21 0C9.33333 0 0 9.33333 0 21C0 25.9 1.63333 30.3333 4.66667 34.0667L5.13333 34.5333H37.1L37.5667 34.0667C38.7333 32.6667 39.6667 31.0333 40.3667 29.4L38.0333 28.2333C37.3333 29.6333 36.6333 30.8 35.7 31.9667Z" fill="black"/>
<path d="M34.5333 13.3L23.8 19.3667C23.1 18.9 22.4 18.4334 21.4667 18.4334C19.3667 18.4334 17.5 20.3 17.5 22.4C17.5 24.5 19.3667 26.3667 21.4667 26.3667C23.5667 26.3667 25.4333 24.5 25.4333 22.4C25.4333 22.1667 25.4333 21.7 25.4333 21.4667L36.1667 15.4L34.5333 13.3ZM21.2333 23.8C20.5333 23.8 19.8333 23.1 19.8333 22.4C19.8333 21.7 20.5333 21 21.2333 21C21.9333 21 22.6333 21.7 22.6333 22.4C22.6333 23.1 21.9333 23.8 21.2333 23.8Z" fill="black"/>
</svg>
