<svg width="30" height="41" viewBox="0 0 30 41" fill="none" xmlns="http://www.w3.org/2000/svg">
<g clip-path="url(#clip0)">
<path d="M16.3798 11.1914V10.1342C17.6236 9.87114 18.7255 9.1587 19.4731 8.13431C20.2206 7.10992 20.5609 5.84614 20.4282 4.58669C20.2955 3.32723 19.6992 2.16132 18.7544 1.31379C17.8096 0.46627 16.5832 -0.00283511 15.3117 -0.00305168C14.0401 -0.00326826 12.8135 0.465419 11.8685 1.31262C10.9234 2.15982 10.3267 3.32554 10.1936 4.58494C10.0605 5.84435 10.4003 7.10825 11.1475 8.13289C11.8947 9.15754 12.9964 9.87035 14.2401 10.1339V11.16C11.598 11.286 9.03714 12.1101 6.8205 13.5475V13.5474L5.7227 12.1459L7.08402 11.0892L5.51392 9.08404L0.778961 12.7612L2.34789 14.7664L3.7103 13.709L4.81252 15.1173C2.29697 17.4434 0.659357 20.5591 0.173427 23.9434C-0.312504 27.3277 0.382693 30.7755 2.14281 33.7106C3.90292 36.6458 6.62129 38.8902 9.84352 40.0689C13.0657 41.2475 16.5966 41.2889 19.8457 40.1861C23.0949 39.0833 25.8656 36.9032 27.6946 34.0102C29.5236 31.1172 30.3001 27.6866 29.8943 24.2918C29.4885 20.8971 27.925 17.7439 25.4651 15.3594C23.0053 12.9749 19.7981 11.5036 16.3798 11.1914ZM12.3059 5.12419C12.3024 4.57797 12.4492 4.04124 12.7302 3.57217C13.0112 3.10311 13.4158 2.71961 13.9002 2.46328C14.3845 2.20694 14.93 2.08755 15.4776 2.11803C16.0252 2.14852 16.554 2.32773 17.0066 2.63623C17.4592 2.94472 17.8183 3.37074 18.0451 3.86808C18.2719 4.36541 18.3577 4.9151 18.2931 5.45752C18.2285 5.99995 18.0161 6.51441 17.6788 6.94514C17.3415 7.37586 16.8923 7.70641 16.3798 7.90094V5.34598H14.2401V7.9008C13.6733 7.68742 13.185 7.30772 12.8396 6.81193C12.4943 6.31614 12.3081 5.72761 12.3059 5.12419ZM14.9995 38.458C12.5375 38.4581 10.1309 37.7311 8.08383 36.369C6.03677 35.0068 4.44126 33.0707 3.49905 30.8055C2.55685 28.5402 2.31028 26.0476 2.79051 23.6428C3.27075 21.2379 4.45623 19.029 6.19703 17.2952C7.93784 15.5614 10.1558 14.3806 12.5704 13.9022C14.985 13.4238 17.4878 13.6693 19.7624 14.6076C22.0369 15.5458 23.981 17.1348 25.3488 19.1734C26.7166 21.2121 27.4466 23.609 27.4467 26.0609C27.4431 29.3476 26.1305 32.4987 23.797 34.8228C21.4635 37.1469 18.2996 38.4543 14.9995 38.458Z" fill="black"/>
<path d="M21.9645 19.6716L14.2695 25.0182L15.7302 27.1034L23.4252 21.7569L21.9645 19.6716Z" fill="black"/>
</g>
<defs>
<clipPath id="clip0">
<rect width="30" height="41" fill="white"/>
</clipPath>
</defs>
</svg>
