<svg width="15" height="18" viewBox="0 0 15 18" fill="none" xmlns="http://www.w3.org/2000/svg">
<path d="M14.5856 7.29282C14.5856 3.31492 11.2707 0 7.29282 0C3.31492 0 0.132597 3.18232 0 7.29282C0 8.61878 0.39779 9.94475 1.06077 11.0055C1.59116 12.1989 4.24309 16.7072 4.24309 17.3702H10.2099C10.2099 16.8398 12.8619 12.3315 13.3923 11.0055C14.1878 9.94475 14.5856 8.61878 14.5856 7.29282ZM11.0055 12.7293C10.0773 14.3204 9.54696 15.3812 9.28177 16.0442H5.30387C5.03867 15.3812 4.50829 14.3204 3.58011 12.7293V12.5967L11.0055 12.7293ZM12.9945 7.29282C12.9945 8.61878 12.4641 10.0773 11.5359 11.0055H2.91713C2.12155 10.0773 1.59116 8.75138 1.59116 7.29282C1.59116 4.1105 4.1105 1.59116 7.29282 1.45856C10.4751 1.59116 12.9945 4.1105 12.9945 7.29282Z" fill="white"/>
</svg>
