
<svg width="23" height="23" viewBox="0 0 23 23" fill="none" xmlns="http://www.w3.org/2000/svg">
<g clip-path="url(#clip0)">
<path d="M23 16.483V2.17188H0V16.483H10.7333V18.1441C9.07222 18.2719 7.53889 18.6552 6.00556 19.4219L6.38889 20.1885L6.77222 20.8274C7.28333 20.5719 7.79444 20.3163 8.30556 20.1885C10.35 19.4219 12.5222 19.4219 14.6944 20.1885C15.2056 20.3163 15.8444 20.5719 16.3556 20.8274L16.6111 20.1885L16.8667 19.5497C15.2056 18.783 13.6722 18.3997 12.1389 18.2719V16.6108H23V16.483ZM1.40556 3.70521H21.4667V15.0774H1.40556V3.70521Z" fill="white"/>
<path d="M8.17798 13.5448L15.3335 9.45592L8.43353 5.23926L8.17798 13.5448ZM9.58353 7.41148L12.778 9.45592L9.58353 11.3726V7.41148Z" fill="white"/>
</g>
<defs>
<clipPath id="clip0">
<rect width="23" height="23" fill="white"/>
</clipPath>
</defs>
</svg>
