<svg width="22" height="22" viewBox="0 0 22 22" fill="none" xmlns="http://www.w3.org/2000/svg">
<path d="M11.0002 11.978C11.5403 11.978 11.978 11.5403 11.978 11.0002C11.978 10.4602 11.5403 10.0225 11.0002 10.0225C10.4602 10.0225 10.0225 10.4602 10.0225 11.0002C10.0225 11.5403 10.4602 11.978 11.0002 11.978Z" fill="white"/>
<path d="M11 0C4.88889 0 0 4.88889 0 11C0 17.1111 4.88889 22 11 22C17.1111 22 22 17.1111 22 11C22 4.88889 17.1111 0 11 0ZM11 20.6556C5.74444 20.6556 1.34444 16.3778 1.34444 11C1.34444 5.62222 5.62222 1.34444 11 1.34444C16.3778 1.34444 20.6556 5.74444 20.6556 11C20.6556 16.2556 16.3778 20.6556 11 20.6556Z" fill="white"/>
<path d="M5.25531 16.7449L13.4442 13.5672L16.622 5.37827L8.43309 8.43382L5.25531 16.7449ZM14.2998 7.70049L12.4664 12.4672L7.69975 14.3005L9.53309 9.53382L14.2998 7.70049Z" fill="white"/>
</svg>
