<svg width="22" height="14" viewBox="0 0 22 14" fill="none" xmlns="http://www.w3.org/2000/svg">
<path d="M22 5.56139L10.997 0L0 5.55857L2.22662 6.65082V12.59H3.54784V7.29903L6.44286 8.7192C5.33476 9.99797 4.72884 11.6339 4.73733 13.3241V14H17.2627V13.3241C17.2728 11.6246 16.6599 9.98006 15.5392 8.69991L22 5.56139ZM10.997 1.47736L19.0298 5.53807L10.9511 9.46224L2.95828 5.54101L10.997 1.47736ZM15.8686 12.6481H6.1314C6.27083 11.3994 6.83288 10.2354 7.72482 9.34815L10.9487 10.9296L14.2477 9.32728C15.1559 10.2146 15.7286 11.3878 15.8686 12.6481Z" fill="white"/>
</svg>
