<svg width="24" height="24" viewBox="0 0 24 24" fill="none" xmlns="http://www.w3.org/2000/svg">
<path d="M12.7374 12.7296C13.552 12.7296 14.2123 12.0766 14.2123 11.2711C14.2123 10.4655 13.552 9.8125 12.7374 9.8125C11.9229 9.8125 11.2626 10.4655 11.2626 11.2711C11.2626 12.0766 11.9229 12.7296 12.7374 12.7296Z" fill="white"/>
<path d="M17.9666 12.7296C18.7811 12.7296 19.4414 12.0766 19.4414 11.2711C19.4414 10.4655 18.7811 9.8125 17.9666 9.8125C17.152 9.8125 16.4917 10.4655 16.4917 11.2711C16.4917 12.0766 17.152 12.7296 17.9666 12.7296Z" fill="white"/>
<path d="M7.50831 12.7296C8.32285 12.7296 8.98317 12.0766 8.98317 11.2711C8.98317 10.4655 8.32285 9.8125 7.50831 9.8125C6.69376 9.8125 6.03345 10.4655 6.03345 11.2711C6.03345 12.0766 6.69376 12.7296 7.50831 12.7296Z" fill="white"/>
<path d="M12.7374 0C6.43575 0 1.47486 5.03867 1.47486 11.2707C1.47486 13.2597 2.01117 15.116 2.94972 16.7072L0 24L7.24022 21.0829C8.84916 21.8785 10.7263 22.4088 12.7374 22.4088C19.0391 22.4088 24 17.3702 24 11.2707C24 5.03867 19.0391 0 12.7374 0ZM12.7374 20.9503C11.1285 20.9503 9.38548 20.5525 8.04469 19.7569L7.3743 19.3591L6.70391 19.6243L2.68156 21.2155L4.2905 17.2376L4.55866 16.5746L4.15642 15.9116C3.35196 14.453 2.94972 12.8619 2.94972 11.2707C2.94972 5.96685 7.3743 1.59116 12.7374 1.59116C18.1006 1.59116 22.5251 5.96685 22.5251 11.2707C22.5251 16.5746 18.1006 20.9503 12.7374 20.9503Z" fill="white"/>
</svg>
