<svg width="24" height="24" viewBox="0 0 24 24" fill="none" xmlns="http://www.w3.org/2000/svg">
<path d="M9.13327 13.3074C11.5746 13.3074 13.5519 11.3287 13.5519 8.88742C13.5519 6.44742 11.5733 4.46875 9.13327 4.46875C6.69327 4.46875 4.7146 6.44742 4.7146 8.88742C4.71327 11.3287 6.69193 13.3074 9.13327 13.3074ZM9.13327 5.96875C10.7426 5.96875 12.0519 7.27808 12.0519 8.88742C12.0519 10.4967 10.7426 11.8074 9.13327 11.8074C7.52393 11.8074 6.21327 10.4967 6.21327 8.88742C6.21327 7.27808 7.5226 5.96875 9.13327 5.96875Z" fill="white"/>
<path d="M0 18.1236V22.4996H17.676V18.1236C15.3267 16.0076 12.248 14.6836 8.83733 14.6836C5.428 14.6823 2.34933 16.0076 0 18.1236ZM16.176 20.9996H1.5V18.8143C3.604 17.1129 6.18533 16.1823 8.83867 16.1823C11.492 16.1823 14.0733 17.1129 16.1773 18.8143V20.9996H16.176Z" fill="white"/>
<path d="M15.6455 5.62774C17.5042 7.48641 17.5042 10.5117 15.6455 12.3704L16.7055 13.4304C19.1495 10.9864 19.1495 7.01041 16.7055 4.56641L15.6455 5.62774Z" fill="white"/>
<path d="M19.8281 1.44629L18.7681 2.50629C22.3481 6.08629 22.3481 11.9116 18.7681 15.4916L19.8281 16.5516C23.9934 12.3876 23.9934 5.61162 19.8281 1.44629Z" fill="white"/>
</svg>
