<svg width="104" height="24" viewBox="0 0 104 24" fill="none" xmlns="http://www.w3.org/2000/svg">
<path d="M101.575 0L95.9137 12.1402L93.7752 7.53289H91.4629L94.9749 15.0658H96.8447L103.87 0H101.575Z" fill="#D52B1E"/>
<path fill-rule="evenodd" clip-rule="evenodd" d="M46.0192 2.19855H41.4167V6.2732H46.0192V2.19855ZM22.3347 19.6683C20.3116 19.6683 19.0819 18.3486 18.8464 16.3271H29.6621C29.6922 13.1027 28.8418 10.5233 27.0526 8.91113C25.7929 7.73836 24.1223 7.0935 22.0107 7.0935C17.4967 7.0935 14.3609 10.5233 14.3609 15.0073C14.3609 19.5213 17.3512 22.9796 22.3047 22.9796C24.1808 22.9796 25.676 22.4817 26.9072 21.6314C28.227 20.7226 29.1643 19.4044 29.4282 18.0846H25.0311C24.5917 19.082 23.6829 19.6683 22.3347 19.6683ZM81.8075 22.5402H77.235V7.53289H81.6605V9.58444H81.7491C82.8333 7.97229 84.27 7.0935 86.3216 7.0935C89.5459 7.0935 91.539 9.43745 91.539 12.7503V22.5402H86.9664V13.6291C86.9664 12.0469 86.1446 10.9327 84.5624 10.9327C82.9218 10.9327 81.8075 12.2809 81.8075 14.187V22.5402ZM60.2931 15.0658C60.2931 10.5517 63.4874 7.12195 68.2654 7.12195C73.0434 7.12195 76.2377 10.5517 76.2377 15.0658C76.2377 19.5514 73.0434 23.0096 68.2654 23.0096C63.4874 23.0096 60.2931 19.5514 60.2931 15.0658ZM68.237 19.6383C66.0685 19.6383 64.9241 17.8207 64.9241 15.0658C64.9241 12.2809 66.0669 10.4933 68.237 10.4933C70.4055 10.4933 71.6083 12.2809 71.6083 15.0658C71.6067 17.8207 70.4055 19.6383 68.237 19.6383ZM60.1177 22.5402H47.2789V19.082L54.3139 11.2266V11.1381H47.2789V7.53289H59.7953V11.0496L52.8488 18.8465V18.935H60.1177V22.5402ZM41.4167 22.5402H46.0192V7.53289H41.4167V22.5402ZM35.3189 22.5402H30.7464V7.53289H35.1134V10.0238H35.2019C36.2277 8.26469 37.4305 7.44438 39.2181 7.44438C39.6575 7.44438 39.9215 7.47283 40.1554 7.56134V11.519H40.0669C37.195 11.1381 35.3189 12.5164 35.3189 15.6522V22.5402ZM25.0027 13.3367C24.8272 11.5791 23.7129 10.3763 22.1008 10.3763C20.1947 10.3763 19.2274 11.5491 18.8765 13.3367H25.0027ZM5.21739 22.5402H10.0238L15.2412 7.53289H10.6387L7.70833 17.1758H7.64985L4.71951 7.53289H0L5.21739 22.5402Z" fill="white"/>
</svg>
